<svg width="49" height="49" viewBox="0 0 49 49" fill="none" xmlns="http://www.w3.org/2000/svg">
<path id="Vector" d="M39.7859 0.768864C39.8147 0.945717 39.9662 1.07832 40.1454 1.07832H43.9565C46.2366 1.07832 48.085 2.92672 48.085 5.20714V44.1346C48.085 46.4149 46.2366 48.2631 43.9565 48.2631H5.02872C2.74859 48.2631 0.90022 46.4149 0.90022 44.1346V5.20714C0.90022 2.92672 2.74859 1.07832 5.02872 1.07832H8.85509C9.03423 1.07832 9.18578 0.945717 9.21454 0.768864C9.25083 0.545844 9.08091 0.34082 8.85501 0.34082H5.02872C2.34129 0.34082 0.16272 2.5194 0.16272 5.20714V44.1346C0.16272 46.822 2.34129 49.0006 5.02872 49.0006H43.9565C46.6439 49.0006 48.8225 46.822 48.8225 44.1346V5.20714C48.8225 2.5194 46.6439 0.34082 43.9565 0.34082H40.1454C39.9195 0.34082 39.7496 0.545844 39.7859 0.768864Z" fill="#14161D"/>
</svg>
