<svg width="22" height="21" viewBox="0 0 22 21" fill="none" xmlns="http://www.w3.org/2000/svg">
<path d="M6.80823 4.39703V2.36291C6.80823 1.61397 7.41536 1.00684 8.16431 1.00684H10.1984M16.9788 1.00684H19.0129C19.7619 1.00684 20.369 1.61397 20.369 2.36291V4.39703M11.5545 1.00684H15.6227M16.9788 14.5676H19.0129C19.7619 14.5676 20.369 13.9605 20.369 13.2115V11.1774M20.369 5.75311V9.82135M4.77411 6.43115H2.73999C1.99105 6.43115 1.38391 7.03829 1.38391 7.78723V9.82135M1.38391 16.6017V18.6359C1.38391 19.3848 1.99105 19.9919 2.73999 19.9919H4.77411M1.38391 11.1774V15.2457M11.5545 19.9919H13.5886C14.3376 19.9919 14.9447 19.3848 14.9447 18.6359V16.6017M6.13019 19.9919H10.1984M6.80823 6.43115V14.5676H14.9447V6.43115H6.80823Z" stroke="black"/>
</svg>
