<svg width="17" height="17" viewBox="0 0 17 17" fill="none" xmlns="http://www.w3.org/2000/svg">
<path d="M4.1471 12.3977H4.6471V11.8977H4.1471V12.3977ZM4.1471 15.6073H3.6471C3.6471 15.7967 3.75407 15.9698 3.92342 16.0545C4.09278 16.1392 4.29545 16.121 4.44697 16.0074L4.1471 15.6073ZM8.42945 12.3977V11.8977H8.26287L8.12958 11.9976L8.42945 12.3977ZM5.21769 4.40845H4.71769V5.40845H5.21769V4.40845ZM11.6412 5.40845H12.1412V4.40845H11.6412V5.40845ZM5.21769 7.61813H4.71769V8.61813H5.21769V7.61813ZM9.50004 8.61813H10V7.61813H9.50004V8.61813ZM3.6471 12.3977V15.6073H4.6471V12.3977H3.6471ZM4.44697 16.0074L8.72933 12.7978L8.12958 11.9976L3.84722 15.2073L4.44697 16.0074ZM8.42945 12.8977H14.853V11.8977H8.42945V12.8977ZM14.853 12.8977C15.7208 12.8977 16.4236 12.1959 16.4236 11.3278H15.4236C15.4236 11.643 15.1692 11.8977 14.853 11.8977V12.8977ZM16.4236 11.3278V1.69878H15.4236V11.3278H16.4236ZM16.4236 1.69878C16.4236 0.830663 15.7208 0.128906 14.853 0.128906V1.12891C15.1692 1.12891 15.4236 1.38359 15.4236 1.69878H16.4236ZM14.853 0.128906H2.00592V1.12891H14.853V0.128906ZM2.00592 0.128906C1.13806 0.128906 0.435333 0.830663 0.435333 1.69878H1.43533C1.43533 1.38359 1.68971 1.12891 2.00592 1.12891V0.128906ZM0.435333 1.69878V11.3278H1.43533V1.69878H0.435333ZM0.435333 11.3278C0.435333 12.1959 1.13806 12.8977 2.00592 12.8977V11.8977C1.68971 11.8977 1.43533 11.643 1.43533 11.3278H0.435333ZM2.00592 12.8977H4.1471V11.8977H2.00592V12.8977ZM5.21769 5.40845H11.6412V4.40845H5.21769V5.40845ZM5.21769 8.61813H9.50004V7.61813H5.21769V8.61813Z" fill="black"/>
</svg>
